<?xml version="1.0" encoding="utf-8"?>
<!-- Generator: Adobe Illustrator 26.0.1, SVG Export Plug-In . SVG Version: 6.00 Build 0)  -->
<svg version="1.1" id="Layer_1" xmlns="http://www.w3.org/2000/svg" xmlns:xlink="http://www.w3.org/1999/xlink" x="0px" y="0px"
	 viewBox="0 0 800 800" style="enable-background:new 0 0 800 800;" xml:space="preserve">
<style type="text/css">
	.st0{fill:#B7D118;}
	.st1{fill:#865C51;}
	.st2{fill:#E4F57D;}
	.st3{fill:#E4DC9F;}
</style>
<path class="st0" d="M403,118c-54.6-0.8-75.2,36.9-93.9,84.6c-14.3,36.5-24.9,90.7-54.6,137.5s-102.7,107.2-93.9,232.3
	c8.9,125.1,82.5,215.9,242.9,219.2c163.9,3.5,239.7-125.7,237.6-255.7c-1.8-110-85-173.9-113.4-233.7C484.4,210.8,501,119.4,403,118
	L403,118z"/>
<path class="st1" d="M358.7,42.5c-1.3,4.9,8.1,43.8,12.7,62.1c6.1,24.4,13.4,55.4,18.3,70.4c2.6,8,9.6,11,15.9,10.4
	c6.5-0.6,14.4-5.6,14.4-14.1c-0.1-15.9,0.4-62.8,0.8-81.4s2.4-56.2,2.2-61.6c-0.1-2.6-15.6-5.4-33.8-2.7
	C370.9,28.3,359.4,39.8,358.7,42.5L358.7,42.5z"/>
<path class="st2" d="M345.6,236.7c-16.5-1.4-20.6,18.9-27,44.2c-6.4,25.3-20.2,57.1-35.8,81.1c-26.4,40.7-53.4,62.1-69.9,102.3
	c-15.4,37.5-17.1,86.6,18.2,91.8c40.9,6.1,46.1-48.8,52.3-71.6c6.4-23.6,16.2-45.9,32.8-73.6c12.1-20.3,39.2-75.8,43.9-115.8
	C364.8,254.6,365.4,238.4,345.6,236.7L345.6,236.7z"/>
<path class="st3" d="M495.7,449.6c-8.2-7.9-19.9-4.4-24.8,0.8c-4.6,4.9-8.4,16.3-0.5,24.4c7.9,8.2,19.6,4.4,25.3-1.1
	C501.9,467.8,502.7,456.4,495.7,449.6z"/>
<path class="st3" d="M525.6,468.1c-7.2,8.1-5.2,19.1,0.6,23.9c5.7,4.9,16.8,4,22.6-3c7.1-8.4,2.8-19.1-1.4-22.6
	C543.2,462.9,532.4,460.5,525.6,468.1L525.6,468.1z"/>
<path class="st3" d="M572.6,491c-9.2,7.9-4.9,19.4-1,23.6c5.4,5.7,16.8,5.3,22.4-0.7c5.7-6,7.3-17.7,0.2-23.1
	C587.2,485.2,578.6,485.8,572.6,491L572.6,491z"/>
<path class="st3" d="M491.1,390.4c-6.5,7.1-4.9,17.9,0.2,22.6s17.6,8.1,24.5-2.2c5.4-8.2,1.1-17.4-3.8-21.5
	C506.8,384.9,496.5,384.4,491.1,390.4L491.1,390.4z"/>
<path class="st3" d="M437.2,391.4c-7.7,8.7-2.6,18.6,2.2,23.4c5.4,5.4,16.6,6.8,22.6,0.2c6-6.5,5.4-16.3,0-23.4
	C456.5,384.6,443.2,384.6,437.2,391.4z"/>
<path class="st3" d="M472.8,306.9c-7.1-3.8-13.3,0.6-16.6,4.9c-3.2,4.4-3,13.6,2.2,17.1c5.2,3.6,14.9,4,19.1-3
	C481.2,319.4,480,310.8,472.8,306.9z"/>
</svg>
